<?xml version="1.0" encoding="UTF-8"?>
<svg width="128" height="128" viewBox="0 0 128 128" xmlns="http://www.w3.org/2000/svg">
  <defs><linearGradient id="g" x1="0" y1="0" x2="1" y2="1"><stop offset="0" stop-color="#0b57d0"/><stop offset="1" stop-color="#083b8f"/></linearGradient></defs>
  <rect x="4" y="4" width="120" height="120" rx="28" fill="url(#g)"/>
  <rect x="26" y="34" width="76" height="66" rx="10" fill="#fff"/>
  <rect x="26" y="34" width="76" height="18" rx="10" fill="#dbe7fb"/>
  <rect x="26" y="44" width="76" height="8" fill="#dbe7fb"/>
  <rect x="38" y="24" width="8" height="18" rx="4" fill="#fff"/>
  <rect x="82" y="24" width="8" height="18" rx="4" fill="#fff"/>
  <path d="M40 70h20v14H40zM62 74h9l6 5v5h-15z" fill="#0b57d0"/>
  <circle cx="46" cy="86" r="3.2" fill="#083b8f"/><circle cx="72" cy="86" r="3.2" fill="#083b8f"/>
  <circle cx="88" cy="66" r="9" fill="#25d366"/><path d="M83.5 66l3 3 6-6" fill="none" stroke="#fff" stroke-width="2.6" stroke-linecap="round" stroke-linejoin="round"/>
</svg>
